<?xml version="1.0" standalone="no"?>
<!DOCTYPE svg PUBLIC "-//W3C//DTD SVG 20010904//EN"
 "http://www.w3.org/TR/2001/REC-SVG-20010904/DTD/svg10.dtd">
<svg version="1.0" xmlns="http://www.w3.org/2000/svg"
 width="60pt" height="100pt" viewBox="0 0 626.000000 626.000000"
 preserveAspectRatio="xMidYMid meet">

<g transform="translate(0.000000,626.000000) scale(0.100000,-0.100000)"
fill="#000000" stroke="none">
<path d="M2455 5224 c-927 -73 -1641 -474 -1769 -995 -21 -84 -21 -267 -1
-408 107 -734 616 -1549 1163 -1862 42 -24 90 -59 106 -77 85 -97 266 -181
470 -219 114 -21 417 -24 526 -5 221 39 439 143 511 244 11 15 24 28 29 28 4
0 45 21 90 46 182 103 399 293 537 472 37 48 67 88 68 89 0 1 42 11 93 22 393
86 804 320 1043 596 66 76 171 231 213 313 56 110 72 258 41 376 -46 174 -201
360 -355 423 -84 34 -271 22 -481 -32 -23 -6 -27 -3 -38 37 -73 243 -325 499
-651 663 -269 135 -559 220 -920 270 -111 15 -561 28 -675 19z m670 -112 c361
-57 661 -165 907 -328 104 -69 275 -242 327 -331 65 -111 93 -201 99 -319 5
-111 -5 -173 -45 -273 -40 -101 -106 -197 -202 -291 -445 -441 -1374 -624
-2177 -430 -356 86 -632 224 -838 420 -176 167 -259 343 -259 545 0 158 55
300 169 444 226 282 679 497 1194 565 179 24 180 24 445 21 190 -2 281 -8 380
-23z m2099 -926 c48 -24 162 -114 154 -122 -2 -1 -35 6 -73 17 -118 33 -189
28 -350 -26 -77 -25 -146 -49 -154 -52 -19 -8 -10 155 9 167 11 7 83 22 210
44 60 11 151 -2 204 -28z m81 -366 c4 -6 -9 -43 -28 -83 -119 -248 -467 -557
-648 -575 -40 -4 -51 -1 -72 20 l-24 24 32 100 c18 54 45 147 60 205 l27 107
62 36 c97 59 222 117 315 147 68 22 105 28 178 29 54 0 95 -4 98 -10z m-4295
-302 c54 -73 175 -196 252 -256 81 -62 210 -137 298 -173 l78 -32 5 -171 c3
-94 13 -214 22 -266 21 -119 74 -284 120 -374 19 -38 34 -71 32 -72 -1 -2 -52
41 -112 95 -362 322 -661 808 -805 1309 -16 55 -32 118 -36 139 -6 34 -1 29
47 -50 30 -48 74 -115 99 -149z"/>
<path d="M2455 4874 c-16 -2 -73 -9 -125 -15 -228 -26 -502 -102 -692 -193
-282 -134 -486 -345 -527 -544 -37 -178 23 -345 179 -503 220 -224 582 -374
1060 -440 60 -9 191 -13 355 -13 287 0 425 16 660 73 612 150 986 498 925 861
-36 213 -218 410 -515 556 -199 98 -398 157 -665 199 -100 16 -577 30 -655 19z
m683 -114 c13 -12 22 -33 22 -50 0 -19 -54 -125 -159 -311 l-159 -282 39 -37
c22 -21 39 -46 39 -59 0 -19 39 -41 275 -156 294 -143 297 -145 281 -211 -8
-31 -58 -55 -95 -44 -29 8 -569 268 -588 283 -7 5 -50 10 -96 12 -47 2 -102
11 -125 20 -50 20 -92 67 -92 102 0 33 51 80 103 94 23 6 53 15 67 18 19 6 59
69 192 307 92 164 177 307 189 317 29 23 80 22 107 -3z"/>
<path d="M1563 1305 c-96 -41 -98 -214 -3 -262 30 -15 99 -17 134 -3 22 8 66
62 66 81 0 3 -16 10 -35 16 -31 10 -36 9 -49 -12 -19 -29 -49 -36 -75 -18 -17
11 -21 25 -21 67 0 28 5 57 12 64 17 17 58 15 79 -4 13 -12 28 -15 54 -10 l35
7 -16 30 c-27 53 -113 74 -181 44z"/>
<path d="M1868 1304 c-100 -42 -101 -219 -1 -260 110 -47 213 17 213 131 0
115 -99 175 -212 129z m112 -70 c8 -8 13 -36 13 -61 0 -36 -5 -50 -23 -65 -25
-20 -57 -16 -77 10 -18 23 -16 97 3 116 20 20 68 21 84 0z"/>
<path d="M2130 1169 l0 -140 43 3 42 3 3 57 3 57 52 3 c46 3 52 5 49 23 -5 26
0 23 -55 26 -42 2 -47 5 -47 26 0 21 4 23 60 23 l60 0 0 30 0 30 -105 0 -105
0 0 -141z"/>
<path d="M2390 1169 l0 -140 43 3 42 3 3 58 3 57 54 0 c52 0 55 1 55 25 0 24
-3 25 -55 25 -52 0 -55 1 -55 25 0 24 3 25 60 25 l60 0 0 30 0 30 -105 0 -105
0 0 -141z"/>
<path d="M2650 1170 l0 -141 118 3 117 3 0 30 0 30 -72 3 c-70 3 -73 4 -73 27
0 24 3 25 65 25 l65 0 0 30 0 30 -65 0 c-58 0 -65 2 -65 20 0 18 7 20 70 20
l70 0 0 30 0 30 -115 0 -115 0 0 -140z"/>
<path d="M2932 1173 l3 -138 115 0 115 0 3 33 3 32 -75 0 c-74 0 -76 1 -76 25
0 24 2 25 65 25 l65 0 0 30 0 30 -65 0 c-58 0 -65 2 -65 20 0 18 7 20 70 20
l70 0 0 30 0 30 -115 0 -116 0 3 -137z"/>
<path d="M3197 1304 c-14 -14 6 -24 49 -24 l44 0 0 -125 c0 -104 2 -125 15
-125 8 0 15 3 15 8 0 4 1 60 2 125 l1 117 48 0 c37 0 49 4 49 15 0 12 -19 15
-108 15 -60 0 -112 -3 -115 -6z"/>
<path d="M3460 1170 c0 -133 1 -140 20 -140 19 0 20 7 20 140 0 133 -1 140
-20 140 -19 0 -20 -7 -20 -140z"/>
<path d="M3562 1173 c3 -121 5 -138 20 -141 15 -3 18 9 20 110 l3 113 39 -113
c28 -83 43 -112 54 -110 9 2 30 45 52 108 l38 105 4 -105 c3 -90 5 -105 21
-108 15 -3 17 9 17 138 l0 141 -27 -3 c-25 -3 -30 -12 -62 -110 -19 -60 -38
-108 -41 -108 -3 0 -22 48 -41 108 -35 104 -37 107 -68 110 l-32 3 3 -138z"/>
<path d="M3890 1170 l0 -140 105 0 c98 0 105 1 105 20 0 18 -7 20 -85 20 l-85
0 0 45 0 45 75 0 c68 0 75 2 75 20 0 18 -7 20 -75 20 l-75 0 0 40 0 40 80 0
c64 0 80 3 80 15 0 12 -18 15 -100 15 l-100 0 0 -140z"/>
</g>
</svg>
